#!OML:ASF E:\Steps\Project 1\Capture day 1\Session 2\Subject.ASF
:FULLY-SPECIFIED
:DEGREES
600
root 8.9129 16.2279 0.643471 -156.971 2.23336 176.77
lowerback -20.1184 -0.120283 -8.44623
upperback 2.02655 2.56119 -2.81272
thorax 13.4857 0.780773 2.44513
lowerneck -3.02867 -1.32091 -1.80772
upperneck 20.0197 -3.9748 4.65686
head 6.70415 -2.22138 1.47164
rclavicle 2.3059e-014 1.19271e-014
rhumerus -29.327 -3.48675 -87.0455
rradius 46.8063
rwrist -8.35838
rhand -4.29049 -55.6554
rfingers 7.12502
rthumb 21.475 -84.485
lclavicle 2.3059e-014 1.19271e-014
lhumerus -34.33 9.77537 74.699
lradius 23.829
lwrist -6.7182
lhand -20.4941 -13.929
lfingers 7.12502
lthumb 5.86275 15.9699
rfemur -15.2737 10.8613 19.6621
rtibia 12.5563
rfoot -22.8046 -11.7081
rtoes -31.8781
lfemur -70.9596 -5.45408 -20.1049
ltibia 58.1206
lfoot -10.0919 0.75717
ltoes -12.0401
601
root 8.90356 16.2398 0.541489 -156.834 2.02953 176.815
lowerback -19.9713 -0.127029 -8.49203
upperback 1.93646 2.5562 -2.87341
thorax 13.2962 0.792287 2.39877
lowerneck -2.84668 -1.46643 -1.71611
upperneck 19.7359 -4.15829 4.71312
head 6.58756 -2.29683 1.4658
rclavicle -4.17448e-015 -2.78299e-014
rhumerus -29.5664 -3.59703 -87.0457
rradius 46.7832
rwrist -8.25368
rhand -4.81298 -55.1933
rfingers 7.12502
rthumb 20.9731 -84.0794
lclavicle -4.17448e-015 -2.78299e-014
lhumerus -34.4448 9.78594 74.5751
lradius 24.0939
lwrist -6.37264
lhand -20.146 -13.4273
lfingers 7.12502
lthumb 6.19882 16.462
rfemur -14.907 10.9431 19.7532
rtibia 12.3682
rfoot -22.4153 -11.7913
rtoes -32.6113
lfemur -70.9567 -5.67301 -20.0929
ltibia 58.2771
lfoot -9.54166 0.672321
ltoes -11.4093
602
root 8.89294 16.2584 0.440087 -156.75 1.78426 176.776
lowerback -19.7419 -0.136984 -8.5703
upperback 1.82794 2.5553 -2.98302
thorax 13.0391 0.811442 2.31577
lowerneck -3.19463 -1.56429 -2.08914
upperneck 20.2517 -4.42372 5.15955
head 6.84028 -2.4224 1.64571
rclavicle 5.56597e-015 7.95139e-015
rhumerus -29.9969 -3.89148 -87.0409
rradius 46.7491
rwrist -8.00377
rhand -5.50412 -54.6716
rfingers 7.12502
rthumb 20.309 -83.6298
lclavicle 5.56597e-015 7.95139e-015
lhumerus -34.5993 9.34859 74.5651
lradius 24.3935
lwrist -5.81549
lhand -20.3037 -13.502
lfingers 7.12502
lthumb 6.04661 16.3917
rfemur -14.567 10.9416 19.7589
rtibia 12.2841
rfoot -22.1013 -11.8712
rtoes -33.1702
lfemur -70.6404 -6.05354 -20.0704
ltibia 58.1062
lfoot -9.33511 0.885736
ltoes -12.0614
603
root 8.88332 16.2805 0.341206 -156.607 1.58551 176.643
lowerback -19.5368 -0.184106 -8.79326
upperback 1.73749 2.54956 -3.10716
thorax 12.8154 0.818723 2.29726
lowerneck -2.90911 -1.60742 -1.76875
upperneck 19.7643 -4.40182 4.98282
head 6.62321 -2.39605 1.54356
rclavicle 6.55989e-015 -3.4191e-014
rhumerus -30.364 -4.21341 -86.9943
rradius 46.6366
rwrist -7.83867
rhand -5.56469 -54.3882
rfingers 7.12502
rthumb 20.2508 -83.3526
lclavicle 6.55989e-015 -3.4191e-014
lhumerus -34.6452 9.18204 74.5145
lradius 24.6669
lwrist -5.56861
lhand -20.4784 -13.9361
lfingers 7.12502
lthumb 5.87796 15.9623
rfemur -14.348 10.7717 19.6523
rtibia 12.2518
rfoot -21.5543 -11.892
rtoes -33.3653
lfemur -70.3046 -6.42269 -20.1405
ltibia 57.9268
lfoot -9.29753 1.02024
ltoes -11.6247
604
root 8.87105 16.3047 0.236038 -156.536 1.50719 176.565
lowerback -19.4879 -0.194372 -9.00825
upperback 1.80177 2.60658 -3.18809
thorax 12.8549 0.834184 2.34288
lowerneck -2.96827 -1.71648 -1.64291
upperneck 19.4112 -4.47623 4.94037
head 6.52037 -2.40878 1.50584
rclavicle 2.18663e-015 -6.91771e-014
rhumerus -30.4384 -4.43394 -86.896
rradius 46.4484
rwrist -7.8364
rhand -5.32778 -54.1559
rfingers 7.12502
rthumb 20.4785 -83.0959
lclavicle 2.18663e-015 -6.91771e-014
lhumerus -34.5668 9.56612 74.4004
lradius 24.9084
lwrist -5.7574
lhand -20.4734 -13.9082
lfingers 7.12502
lthumb 5.88279 15.9901
rfemur -14.0231 10.7111 19.5893
rtibia 12.1877
rfoot -20.8444 -11.9099
rtoes -33.248
lfemur -69.8148 -6.60333 -20.2974
ltibia 57.7961
lfoot -9.23087 0.937015
ltoes -10.6323
